<?xml version="1.0" encoding="UTF-8" standalone="no"?>
<svg viewBox="0 0 607.24792 832.8573" xmlns="http://www.w3.org/2000/svg" xmlns:inkscape="http://www.inkscape.org/namespaces/inkscape">
<defs>
<inkscape:path-effect/>
<clipPath>
<path d="m304.49041,27.18022h449.94567a.14455,.14455 0 0,1 .14455.14455v394.9457a.14455,.14455 0 0,1 -.14455.14455h-449.94567a.14455,.14455 0 0,1 -.14455-.14455v-394.9457a.14455,.14455 0 0,1 .14455-.14455"/>
</clipPath>
<linearGradient gradientUnits="userSpaceOnUse" x1="541.20691" x2="549.6738" y1="14.79726" y2="434.79729">
<stop offset="0" stop-color="#a40000"/>
<stop offset="1" stop-color="#ef2929"/>
</linearGradient>
<linearGradient>
<stop offset="0" stop-color="#61d8fa"/>
<stop offset="1" stop-color="#4396ae"/>
</linearGradient>
<marker orient="auto" refX="0" refY="0">
<path d="m8.71859,4.03374-10.92588-4.01772 10.92588-4.01772c-1.7455,2.37206-1.73544,5.61745-6e-007,8.03544z" fill-rule="evenodd" transform="scale(-.6)"/>
</marker>
</defs>
<g transform="matrix(.94926,0,0,.94926,1428.4763,-113.18218)">
<path d="m-1332.5717,974.3477h301.5154l8.434-229.82645 56.92952-69.58048 35.84449-175.00546-94.88251,84.33998-69.5804-67.47198-128.6185-27.4105 78.0145,94.88248 42.17,111.75047 21.0849,23.1935-33.7359,16.868 2.1085,172.89696-27.4105-193.98196-44.2785-4.217 59.038-37.95299-130.727-200.30745-90.6655-35.8445 23.1935-10.54249 18.9765-29.519-6.3255-31.62749 54.821,50.60399 94.8825-23.1935 10.5425-56.92948-196.0905-88.55698-141.2695,208.74145 187.6565,269.88794-31.6275,248.80294z" fill="#f00"/>
<path d="m-1246.1232,141.49039-78.0145,103.31648 103.3165,44.27849 59.038-99.09948-84.34-48.49549z" fill="#f00"/>
<path d="m-1149.1322,196.31138-61.1465,94.88248 71.689,40.06149-10.5425,52.71249 37.953-25.302 67.4719-96.99097-105.4249-65.36349z" fill="#f00"/>
<path d="m-1050.0328,286.97686 92.77402,63.25499-130.72692,160.24596-84.34-40.06149 122.2929-183.43946z" fill="#f00"/>
<path d="m-946.71628,358.66584 65.36348,84.33998-143.378,128.61847-56.9295-50.60399 134.94402-162.35446z" fill="#f00"/>
<path d="m-1166.0002,413.48683-35.8445,61.14649-59.038-33.736 94.8825-27.41049z" fill="#f00"/>
</g>
</svg>
